<svg width="112" height="32" viewBox="0 0 112 32" fill="none" xmlns="http://www.w3.org/2000/svg">
<rect width="31.9998" height="32" rx="6.85714" fill="url(#paint0_linear_1_9738)"/>
<path d="M16.4263 7.43075C16.6539 8.08231 17.1891 8.61396 17.9068 8.80508C18.6244 8.99794 19.3525 8.80507 19.8755 8.35506C20.1935 8.08228 20.4351 7.71394 20.5515 7.27957C20.6488 6.91296 20.647 6.54462 20.5619 6.2006C20.3777 5.46391 19.8095 4.84536 19.0241 4.63339C18.2387 4.42316 17.4359 4.67507 16.9094 5.22238C11.8041 4.77932 6.96131 8.04409 5.58857 13.1662C4.73712 16.3406 5.39917 19.5653 7.12987 22.0742C7.50569 22.6175 7.93036 23.1278 8.40183 23.597C8.54178 23.7363 8.77384 23.7011 8.87258 23.5301L13.66 15.2407L18.6854 20.2657C18.6978 20.2781 18.7133 20.287 18.7303 20.2914C18.7734 20.3028 18.8189 20.2839 18.8412 20.2452L23.5767 12.0455C24.5168 13.8646 24.807 16.0278 24.2336 18.1631C23.1666 22.1437 19.455 24.7082 15.4967 24.4737C15.2516 23.8673 14.7338 23.3773 14.0527 23.1949C13.3715 23.0125 12.6782 23.1758 12.1621 23.5806C11.8059 23.8586 11.5331 24.2513 11.4062 24.7221C11.3193 25.047 11.3107 25.3737 11.3697 25.683C11.5192 26.4718 12.1065 27.1442 12.9336 27.3649C13.7607 27.5873 14.6035 27.2971 15.1283 26.689C20.2126 27.1042 25.0259 23.8447 26.3935 18.7417C27.2449 15.5656 26.5829 12.3426 24.8522 9.83366C24.4764 9.29039 24.0517 8.78008 23.5802 8.31092C23.4403 8.17164 23.2082 8.20684 23.1095 8.37785L22.1466 10.0456L18.296 16.7141L13.464 11.8825C13.3209 11.7395 13.081 11.771 12.9798 11.9463L8.40704 19.8659C7.46697 18.045 7.17678 15.8836 7.75021 13.7482C8.81017 9.78849 12.4905 7.22917 16.4263 7.43419V7.43075ZM17.667 6.50466C17.7851 6.06334 18.2387 5.80096 18.68 5.91911C19.1214 6.03726 19.3838 6.49249 19.2656 6.93208C19.1475 7.3734 18.6939 7.63578 18.2526 7.51763C17.8112 7.39948 17.5488 6.94424 17.667 6.50466ZM14.2925 25.4936C14.1743 25.9349 13.7208 26.1955 13.2794 26.0791C12.838 25.961 12.5757 25.5075 12.6938 25.0662C12.812 24.6249 13.2655 24.3625 13.7069 24.4806C14.1482 24.5988 14.4106 25.0523 14.2925 25.4936Z" fill="white"/>
<path d="M98.0919 6.37L101.959 13.4429L105.888 6.37H110.666L104.89 15.9503L110.766 25.5305H106.013L101.959 18.6322L97.9422 25.5305H93.1521L98.99 15.9503L93.3018 6.37H98.0919Z" fill="url(#paint1_linear_1_9738)"/>
<path d="M85.2394 17.4721V6.37H89.755V25.5305H85.3766V22.125H85.177C84.7445 23.1978 84.0335 24.0752 83.0439 24.7571C82.0626 25.4391 80.8526 25.78 79.4139 25.78C78.1582 25.78 77.048 25.5014 76.0833 24.9442C75.1269 24.3787 74.3785 23.5596 73.8379 22.4868C73.2974 21.4057 73.0271 20.1 73.0271 18.5699V6.37H77.5428V17.8713C77.5428 19.0855 77.8754 20.0502 78.5407 20.7653C79.206 21.4805 80.0792 21.8381 81.1603 21.8381C81.8256 21.8381 82.4701 21.676 83.0938 21.3516C83.7175 21.0273 84.2289 20.545 84.6281 19.9046C85.0356 19.256 85.2394 18.4451 85.2394 17.4721Z" fill="url(#paint2_linear_1_9738)"/>
<path d="M59.0974 25.5306V6.37002H63.4759V9.56344H63.6754C64.0247 8.45738 64.6235 7.60497 65.4717 7.00621C66.3283 6.39912 67.3054 6.09558 68.4032 6.09558C68.6527 6.09558 68.9312 6.10805 69.2389 6.133C69.555 6.14964 69.8169 6.17874 70.0248 6.22032V10.3743C69.8335 10.3077 69.53 10.2495 69.1142 10.1996C68.7067 10.1414 68.3117 10.1123 67.9292 10.1123C67.1059 10.1123 66.3657 10.2911 65.7087 10.6487C65.0601 10.998 64.5486 11.4845 64.1744 12.1082C63.8002 12.7319 63.6131 13.4513 63.6131 14.2663V25.5306H59.0974Z" fill="url(#paint3_linear_1_9738)"/>
<path d="M47.1808 25.9044C45.2681 25.9044 43.6256 25.4844 42.2535 24.6445C40.8896 23.8046 39.8376 22.6444 39.0975 21.1642C38.3657 19.6756 37.9998 17.9624 37.9998 16.0247C37.9998 14.0788 38.374 12.3615 39.1224 10.8729C39.8709 9.37594 40.927 8.21167 42.2909 7.38005C43.663 6.54012 45.2847 6.12015 47.1558 6.12015C48.7109 6.12015 50.0873 6.40706 51.2848 6.98088C52.4906 7.54638 53.4511 8.34889 54.1663 9.38842C54.8815 10.4196 55.289 11.6255 55.3888 13.006H51.0727C50.8981 12.0829 50.4823 11.3136 49.8253 10.6982C49.1766 10.0745 48.3076 9.76265 47.2182 9.76265C46.2951 9.76265 45.4843 10.0121 44.7857 10.5111C44.0872 11.0018 43.5425 11.7086 43.1516 12.6317C42.7691 13.5548 42.5778 14.6609 42.5778 15.9499C42.5778 17.2555 42.7691 18.3782 43.1516 19.318C43.5341 20.2494 44.0705 20.9687 44.7608 21.476C45.4593 21.975 46.2785 22.2245 47.2182 22.2245C47.8835 22.2245 48.4781 22.0997 49.002 21.8503C49.5342 21.5924 49.9792 21.2224 50.3368 20.74C50.6943 20.2577 50.9397 19.6714 51.0727 18.9812H55.3888C55.2807 20.3367 54.8815 21.5384 54.1913 22.5862C53.501 23.6258 52.5613 24.4407 51.3721 25.0312C50.1829 25.6133 48.7858 25.9044 47.1808 25.9044Z" fill="url(#paint4_linear_1_9738)"/>
<defs>
<linearGradient id="paint0_linear_1_9738" x1="22.3617" y1="1.25226" x2="-0.000241825" y2="35.1493" gradientUnits="userSpaceOnUse">
<stop stop-color="#5E5ADB"/>
<stop offset="1" stop-color="#5E5ADB" stop-opacity="0.8"/>
</linearGradient>
<linearGradient id="paint1_linear_1_9738" x1="105.461" y1="7.11981" x2="91.6623" y2="26.3472" gradientUnits="userSpaceOnUse">
<stop stop-color="#5E5ADB"/>
<stop offset="1" stop-color="#5E5ADB" stop-opacity="0.8"/>
</linearGradient>
<linearGradient id="paint2_linear_1_9738" x1="84.7167" y1="7.12957" x2="70.474" y2="25.7361" gradientUnits="userSpaceOnUse">
<stop stop-color="#5E5ADB"/>
<stop offset="1" stop-color="#5E5ADB" stop-opacity="0.8"/>
</linearGradient>
<linearGradient id="paint3_linear_1_9738" x1="66.7336" y1="6.85613" x2="52.1469" y2="19.2883" gradientUnits="userSpaceOnUse">
<stop stop-color="#5E5ADB"/>
<stop offset="1" stop-color="#5E5ADB" stop-opacity="0.8"/>
</linearGradient>
<linearGradient id="paint4_linear_1_9738" x1="50.1514" y1="6.89437" x2="35.711" y2="26.1337" gradientUnits="userSpaceOnUse">
<stop stop-color="#5E5ADB"/>
<stop offset="1" stop-color="#5E5ADB" stop-opacity="0.8"/>
</linearGradient>
</defs>
</svg>
